Lexend-wght700_VL.ufo
<glyph name="two" format="2">
  <advance width="548"/>
  <unicode hex="0032"/>
  <outline>
    <contour>
      <point x="192.0" y="157.33333333333331" type="line"/>
      <point x="542.6666666666666" y="157.33333333333331" type="line"/>
      <point x="542.6666666666666" y="0.0" type="line"/>
      <point x="53.66666666666667" y="0.0" type="line"/>
      <point x="20.0" y="82.0" type="line"/>
      <point x="216.0" y="302.3333333333333" type="line" smooth="yes"/>
      <point x="260.6666666666667" y="352.3333333333333"/>
      <point x="335.6666666666667" y="453.0"/>
      <point x="335.6666666666667" y="488.3333333333333" type="qcurve"/>
      <point x="335.6666666666667" y="514.3333333333334"/>
      <point x="302.3333333333333" y="550.0"/>
      <point x="268.6666666666667" y="550.0" type="qcurve"/>
      <point x="235.66666666666666" y="550.0"/>
      <point x="179.0" y="500.3333333333333"/>
      <point x="154.66666666666666" y="448.3333333333333" type="qcurve"/>
      <point x="22.333333333333336" y="519.0" type="line"/>
      <point x="54.0" y="606.0"/>
      <point x="197.66666666666666" y="717.3333333333334"/>
      <point x="286.3333333333333" y="716.6666666666666" type="qcurve" smooth="yes"/>
      <point x="380.0" y="716.0"/>
      <point x="510.0" y="603.0"/>
      <point x="510.0" y="511.6666666666667" type="qcurve" smooth="yes"/>
      <point x="510.0" y="459.0"/>
      <point x="452.6666666666667" y="330.0"/>
      <point x="377.6666666666667" y="247.0" type="qcurve"/>
      <point x="218.66666666666666" y="74.0" type="line"/>
    </contour>
  </outline>
</glyph>
<glyph name="four" format="2">
  <advance width="659"/>
  <unicode hex="0034"/>
  <outline>
    <contour>
      <point x="546.0" y="0.0" type="line"/>
      <point x="375.3333333333333" y="0.0" type="line"/>
      <point x="375.3333333333333" y="570.6666666666666" type="line"/>
      <point x="453.66666666666663" y="564.6666666666666" type="line"/>
      <point x="201.0" y="250.33333333333334" type="line"/>
      <point x="179.66666666666666" y="296.3333333333333" type="line"/>
      <point x="634.6666666666666" y="296.3333333333333" type="line"/>
      <point x="634.6666666666666" y="150.0" type="line"/>
      <point x="97.33333333333333" y="150.0" type="line"/>
      <point x="30.0" y="274.6666666666667" type="line"/>
      <point x="389.6666666666667" y="706.6666666666666" type="line"/>
      <point x="546.0" y="706.6666666666666" type="line"/>
    </contour>
  </outline>
</glyph>
<glyph name="eight" format="2">
  <advance width="602"/>
  <unicode hex="0038"/>
  <outline>
    <contour>
      <point x="539.3333333333334" y="515.6666666666666" type="qcurve" smooth="yes"/>
      <point x="539.3333333333334" y="466.6666666666667"/>
      <point x="481.3333333333333" y="386.0"/>
      <point x="426.3333333333333" y="364.0" type="qcurve"/>
      <point x="423.3333333333333" y="381.0" type="line"/>
      <point x="486.0" y="355.6666666666667"/>
      <point x="564.0" y="257.0"/>
      <point x="564.0" y="200.0" type="qcurve" smooth="yes"/>
      <point x="564.0" y="115.0"/>
      <point x="410.6666666666667" y="-3.0"/>
      <point x="300.3333333333333" y="-3.0" type="qcurve"/>
      <point x="191.0" y="-3.0"/>
      <point x="37.66666666666667" y="116.0"/>
      <point x="37.66666666666667" y="200.0" type="qcurve" smooth="yes"/>
      <point x="37.66666666666667" y="262.0"/>
      <point x="110.66666666666667" y="354.6666666666667"/>
      <point x="179.33333333333334" y="385.0" type="qcurve"/>
      <point x="173.33333333333334" y="364.0" type="line"/>
      <point x="121.33333333333333" y="384.0"/>
      <point x="61.333333333333336" y="466.6666666666667"/>
      <point x="61.333333333333336" y="515.6666666666666" type="qcurve" smooth="yes"/>
      <point x="61.333333333333336" y="594.6666666666666"/>
      <point x="201.33333333333334" y="713.3333333333334"/>
      <point x="300.3333333333333" y="713.3333333333334" type="qcurve"/>
      <point x="399.3333333333333" y="713.3333333333334"/>
      <point x="539.3333333333334" y="594.6666666666666"/>
    </contour>
    <contour>
      <point x="300.3333333333333" y="586.6666666666666" type="qcurve"/>
      <point x="266.3333333333333" y="586.6666666666666"/>
      <point x="221.66666666666666" y="546.0"/>
      <point x="221.66666666666666" y="516.0" type="qcurve"/>
      <point x="221.66666666666666" y="486.0"/>
      <point x="266.3333333333333" y="447.3333333333333"/>
      <point x="300.3333333333333" y="447.3333333333333" type="qcurve" smooth="yes"/>
      <point x="334.3333333333333" y="447.3333333333333"/>
      <point x="379.0" y="486.0"/>
      <point x="379.0" y="516.0" type="qcurve"/>
      <point x="379.0" y="546.0"/>
      <point x="334.3333333333333" y="586.6666666666666"/>
    </contour>
    <contour>
      <point x="211.33333333333331" y="207.33333333333334" type="qcurve"/>
      <point x="211.33333333333331" y="175.0"/>
      <point x="262.6666666666667" y="130.33333333333331"/>
      <point x="300.3333333333333" y="130.33333333333331" type="qcurve"/>
      <point x="339.0" y="130.33333333333331"/>
      <point x="390.3333333333333" y="174.0"/>
      <point x="390.3333333333333" y="207.33333333333334" type="qcurve"/>
      <point x="390.3333333333333" y="243.66666666666666"/>
      <point x="339.0" y="291.3333333333333"/>
      <point x="300.3333333333333" y="291.3333333333333" type="qcurve" smooth="yes"/>
      <point x="262.6666666666667" y="291.3333333333333"/>
      <point x="211.33333333333331" y="243.66666666666666"/>
    </contour>
  </outline>
</glyph>
<glyph name="K" format="2">
  <advance width="740"/>
  <unicode hex="004B"/>
  <note>
K
</note>
  <anchor x="344.0" y="0" name="bottom"/>
  <anchor x="356.0" y="700.0" name="top"/>
  <outline>
    <contour>
      <point x="86.0" y="0.0" type="line"/>
      <point x="86.0" y="700.0" type="line"/>
      <point x="266.0" y="700.0" type="line"/>
      <point x="266.0" y="0.0" type="line"/>
    </contour>
    <contour>
      <point x="216.0" y="210.0" type="line"/>
      <point x="168.0" y="357.0" type="line"/>
      <point x="512.3333333333334" y="700.0" type="line"/>
      <point x="720.3333333333334" y="700.0" type="line"/>
    </contour>
    <contour>
      <point x="533.3333333333334" y="0.0" type="line"/>
      <point x="274.6666666666667" y="346.6666666666667" type="line"/>
      <point x="394.6666666666667" y="450.3333333333333" type="line"/>
      <point x="741.6666666666666" y="0.0" type="line"/>
    </contour>
  </outline>
</glyph>
<glyph name="Y" format="2">
  <advance width="693"/>
  <unicode hex="0059"/>
  <note>
Y
</note>
  <anchor x="348.3333333333333" y="-0.33333333333333337" name="bottom"/>
  <anchor x="347.0" y="700.0" name="top"/>
  <anchor x="40.0" y="700.0" name="topleft"/>
  <outline>
    <contour>
      <point x="506.0" y="700.0" type="line"/>
      <point x="703.3333333333334" y="700.0" type="line"/>
      <point x="432.3333333333333" y="289.0" type="line"/>
      <point x="447.3333333333333" y="357.0" type="line"/>
      <point x="447.3333333333333" y="0.0" type="line"/>
      <point x="266.0" y="0.0" type="line"/>
      <point x="266.0" y="349.0" type="line"/>
      <point x="273.0" y="300.0" type="line"/>
      <point x="-10.0" y="700.0" type="line"/>
      <point x="193.33333333333331" y="700.0" type="line"/>
      <point x="409.3333333333333" y="390.0" type="line"/>
      <point x="311.0" y="393.0" type="line"/>
    </contour>
  </outline>
</glyph>
<glyph name="asciicircum" format="2">
  <advance width="594"/>
  <unicode hex="005E"/>
  <note>
asciicircum
</note>
  <outline>
    <contour>
      <point x="176.0" y="360.0" type="line"/>
      <point x="9.666666666666668" y="360.0" type="line"/>
      <point x="230.66666666666666" y="733.6666666666666" type="line"/>
      <point x="364.0" y="733.6666666666666" type="line"/>
      <point x="585.0" y="360.0" type="line"/>
      <point x="416.0" y="360.0" type="line"/>
      <point x="251.0" y="646.3333333333334" type="line"/>
      <point x="345.0" y="648.0" type="line"/>
    </contour>
  </outline>
</glyph>
<glyph name="b" format="2">
  <advance width="666"/>
  <unicode hex="0062"/>
  <note>
b
</note>
  <anchor x="339.3333333333333" y="0" name="bottom"/>
  <anchor x="339.3333333333333" y="510.0" name="top"/>
  <outline>
    <contour>
      <point x="395.6666666666667" y="542.6666666666666" type="qcurve"/>
      <point x="499.0" y="542.6666666666666"/>
      <point x="632.6666666666666" y="386.3333333333333"/>
      <point x="632.6666666666666" y="266.0" type="qcurve"/>
      <point x="632.6666666666666" y="144.66666666666666"/>
      <point x="500.6666666666667" y="-10.0"/>
      <point x="400.0" y="-10.0" type="qcurve"/>
      <point x="327.6666666666667" y="-10.0"/>
      <point x="215.33333333333331" y="61.66666666666667"/>
      <point x="205.0" y="111.66666666666667" type="qcurve"/>
      <point x="241.0" y="122.33333333333333" type="line"/>
      <point x="230.33333333333331" y="1.0" type="line"/>
      <point x="74.0" y="1.0" type="line"/>
      <point x="74.0" y="740.0" type="line"/>
      <point x="244.33333333333331" y="740.0" type="line"/>
      <point x="244.33333333333331" y="404.3333333333333" type="line"/>
      <point x="209.0" y="416.6666666666667" type="line"/>
      <point x="220.66666666666666" y="468.3333333333333"/>
      <point x="329.0" y="542.6666666666666"/>
    </contour>
    <contour>
      <point x="467.0" y="266.0" type="qcurve"/>
      <point x="467.0" y="327.6666666666667"/>
      <point x="405.6666666666667" y="400.6666666666667"/>
      <point x="353.6666666666667" y="400.6666666666667" type="qcurve"/>
      <point x="301.0" y="400.6666666666667"/>
      <point x="239.33333333333331" y="327.6666666666667"/>
      <point x="239.33333333333331" y="266.0" type="qcurve"/>
      <point x="239.33333333333331" y="204.0"/>
      <point x="301.0" y="130.66666666666666"/>
      <point x="353.6666666666667" y="130.66666666666666" type="qcurve"/>
      <point x="405.3333333333333" y="130.66666666666666"/>
      <point x="467.0" y="204.0"/>
    </contour>
  </outline>
</glyph>
<glyph name="e" format="2">
  <advance width="586"/>
  <unicode hex="0065"/>
  <note>
e
</note>
  <anchor x="298.0" y="-6.666666666666668" name="bottom"/>
  <anchor x="501.6666666666667" y="33.33333333333333" name="ogonek"/>
  <anchor x="293.0" y="533.3333333333334" name="top"/>
  <outline>
    <contour>
      <point x="456.6666666666667" y="178.66666666666666" type="qcurve"/>
      <point x="536.0" y="67.0" type="line"/>
      <point x="486.4585040287777" y="26.464286324274628"/>
      <point x="379.5121951219512" y="-10.0"/>
      <point x="325.0" y="-10.0" type="qcurve"/>
      <point x="191.0" y="-10.0"/>
      <point x="33.333333333333336" y="144.66666666666666"/>
      <point x="33.333333333333336" y="264.3333333333333" type="qcurve"/>
      <point x="33.333333333333336" y="386.3333333333333"/>
      <point x="185.66666666666666" y="542.6666666666666"/>
      <point x="303.3333333333333" y="543.0" type="qcurve"/>
      <point x="416.0" y="542.6666666666666"/>
      <point x="556.6666666666666" y="390.0"/>
      <point x="556.6666666666666" y="272.6666666666667" type="qcurve"/>
      <point x="555.6666666666666" y="230.0" type="line"/>
      <point x="133.33333333333334" y="230.0" type="line"/>
      <point x="110.33333333333333" y="320.6666666666667" type="line"/>
      <point x="418.6666666666667" y="320.6666666666667" type="line"/>
      <point x="401.0" y="301.6666666666667" type="line"/>
      <point x="401.0" y="321.6666666666667" type="line"/>
      <point x="399.3333333333333" y="357.3333333333333"/>
      <point x="346.3333333333333" y="402.6666666666667"/>
      <point x="306.0" y="402.6666666666667" type="qcurve"/>
      <point x="249.66666666666666" y="402.6666666666667"/>
      <point x="190.66666666666666" y="336.7378277153558"/>
      <point x="190.66666666666666" y="277.3333333333333" type="qcurve"/>
      <point x="190.66666666666666" y="214.0"/>
      <point x="270.6929133858268" y="137.33333333333331"/>
      <point x="343.6666666666667" y="137.33333333333331" type="qcurve"/>
      <point x="376.6666666666667" y="137.33333333333331"/>
      <point x="427.6666666666667" y="156.0"/>
    </contour>
  </outline>
</glyph>
<glyph name="h" format="2">
  <advance width="645"/>
  <unicode hex="0068"/>
  <note>
h
</note>
  <anchor x="322.0" y="0" name="bottom"/>
  <anchor x="152.0" y="593.0" name="center"/>
  <anchor x="151.0" y="729.0" name="top"/>
  <outline>
    <contour>
      <point x="397.6666666666667" y="542.6666666666666" type="qcurve"/>
      <point x="487.6666666666667" y="542.6666666666666"/>
      <point x="582.3333333333334" y="432.3333333333333"/>
      <point x="582.3333333333334" y="326.6666666666667" type="qcurve"/>
      <point x="582.3333333333334" y="0.0" type="line"/>
      <point x="412.6666666666667" y="0.0" type="line"/>
      <point x="412.6666666666667" y="313.0" type="line"/>
      <point x="412.6666666666667" y="357.6666666666667"/>
      <point x="373.0" y="402.3333333333333"/>
      <point x="335.0" y="401.3333333333333" type="qcurve"/>
      <point x="295.3333333333333" y="401.3333333333333"/>
      <point x="243.66666666666666" y="353.3333333333333"/>
      <point x="243.66666666666666" y="318.0" type="qcurve"/>
      <point x="243.66666666666666" y="0.0" type="line"/>
      <point x="217.66666666666666" y="0.0"/>
      <point x="100.0" y="0.0"/>
      <point x="74.0" y="0.0" type="qcurve"/>
      <point x="74.0" y="740.0" type="line"/>
      <point x="240.33333333333331" y="740.0" type="line"/>
      <point x="240.33333333333331" y="423.6666666666667" type="line"/>
      <point x="205.66666666666666" y="411.6666666666667" type="line"/>
      <point x="221.33333333333331" y="467.0"/>
      <point x="331.3333333333333" y="542.6666666666666"/>
    </contour>
  </outline>
</glyph>
<glyph name="k" format="2">
  <advance width="636"/>
  <unicode hex="006B"/>
  <note>
k
</note>
  <anchor x="309.6666666666667" y="0" name="bottom"/>
  <anchor x="309.6666666666667" y="510.0" name="top"/>
  <outline>
    <contour>
      <point x="241.0" y="0.0" type="line"/>
      <point x="71.33333333333333" y="0.0" type="line"/>
      <point x="71.33333333333333" y="740.0" type="line"/>
      <point x="241.0" y="740.0" type="line"/>
    </contour>
    <contour>
      <point x="415.3333333333333" y="531.6666666666666" type="line"/>
      <point x="637.6666666666666" y="531.6666666666666" type="line"/>
      <point x="185.33333333333334" y="108.0" type="line"/>
      <point x="167.0" y="276.0" type="line"/>
    </contour>
    <contour>
      <point x="630.6666666666666" y="0.0" type="line"/>
      <point x="432.0" y="0.0" type="line"/>
      <point x="254.0" y="244.33333333333334" type="line"/>
      <point x="373.0" y="334.6666666666667" type="line"/>
    </contour>
  </outline>
</glyph>
<glyph name="m" format="2">
  <advance width="969"/>
  <unicode hex="006D"/>
  <note>
m
</note>
  <anchor x="466.0" y="0" name="bottom"/>
  <anchor x="466.0" y="510.0" name="top"/>
  <outline>
    <contour>
      <point x="385.0" y="542.0" type="qcurve"/>
      <point x="443.0" y="542.0"/>
      <point x="520.585999843716" y="489.53563992686446"/>
      <point x="550.0" y="422.3333333333333" type="qcurve"/>
      <point x="524.0" y="424.3333333333333" type="line"/>
      <point x="533.0" y="439.3333333333333" type="line"/>
      <point x="568.2793450026285" y="492.83682894667953"/>
      <point x="665.5762144053601" y="542.0"/>
      <point x="720.0" y="542.0" type="qcurve"/>
      <point x="811.2058287795993" y="542.0"/>
      <point x="907.0" y="431.0"/>
      <point x="907.0" y="325.0" type="qcurve"/>
      <point x="907.0" y="0.0" type="line"/>
      <point x="737.0" y="0.0" type="line"/>
      <point x="737.0" y="311.6666666666667" type="line"/>
      <point x="737.0" y="356.0"/>
      <point x="698.6666666666666" y="400.3333333333333"/>
      <point x="662.0" y="400.3333333333333" type="qcurve"/>
      <point x="623.0" y="400.3333333333333"/>
      <point x="573.0" y="352.3333333333333"/>
      <point x="573.0" y="316.6666666666667" type="qcurve"/>
      <point x="573.0" y="0.0" type="line"/>
      <point x="403.0" y="0.0" type="line"/>
      <point x="403.0" y="312.3333333333333" type="line"/>
      <point x="403.0" y="355.0"/>
      <point x="364.316384180791" y="400.3333333333333"/>
      <point x="328.6666666666667" y="400.3333333333333" type="qcurve"/>
      <point x="290.29411764705884" y="400.3333333333333"/>
      <point x="240.0" y="352.6666666666667"/>
      <point x="240.0" y="317.3333333333333" type="qcurve"/>
      <point x="240.0" y="0.0" type="line"/>
      <point x="70.0" y="0.0" type="line"/>
      <point x="70.0" y="531.6666666666666" type="line"/>
      <point x="230.0" y="531.6666666666666" type="line"/>
      <point x="235.33333333333331" y="438.3333333333333" type="line"/>
      <point x="213.66666666666666" y="439.6666666666667" type="line"/>
      <point x="249.8387324103424" y="490.7697378889821"/>
      <point x="335.6666666666667" y="542.0"/>
    </contour>
  </outline>
</glyph>
<glyph name="p" format="2">
  <advance width="663"/>
  <unicode hex="0070"/>
  <note>
p
</note>
  <anchor x="335.6666666666667" y="0" name="bottom"/>
  <anchor x="335.6666666666667" y="526.6666666666666" name="top"/>
  <outline>
    <contour>
      <point x="396.0" y="542.0" type="qcurve"/>
      <point x="497.3333333333333" y="542.0"/>
      <point x="629.6666666666666" y="387.6666666666667"/>
      <point x="629.6666666666666" y="266.3333333333333" type="qcurve"/>
      <point x="629.6666666666666" y="146.66666666666666"/>
      <point x="496.3333333333333" y="-9.0"/>
      <point x="393.6666666666667" y="-9.0" type="qcurve"/>
      <point x="325.3333333333333" y="-9.0"/>
      <point x="215.0" y="65.0"/>
      <point x="202.66666666666666" y="117.0" type="qcurve"/>
      <point x="241.33333333333331" y="131.0" type="line"/>
      <point x="241.33333333333331" y="-220.0" type="line"/>
      <point x="70.66666666666667" y="-220.0" type="line"/>
      <point x="70.66666666666667" y="532.0" type="line"/>
      <point x="230.66666666666666" y="532.0" type="line"/>
      <point x="238.0" y="413.0" type="line"/>
      <point x="205.33333333333331" y="422.0" type="line"/>
      <point x="215.0" y="471.6666666666667"/>
      <point x="325.3333333333333" y="542.0"/>
    </contour>
    <contour>
      <point x="464.0" y="266.3333333333333" type="qcurve"/>
      <point x="464.0" y="327.6666666666667"/>
      <point x="402.6666666666667" y="400.3333333333333"/>
      <point x="350.6666666666667" y="400.3333333333333" type="qcurve"/>
      <point x="298.0" y="400.3333333333333"/>
      <point x="236.33333333333331" y="328.0"/>
      <point x="236.33333333333331" y="266.3333333333333" type="qcurve"/>
      <point x="236.33333333333331" y="205.0"/>
      <point x="298.0" y="132.66666666666666"/>
      <point x="350.6666666666667" y="132.66666666666666" type="qcurve"/>
      <point x="402.3333333333333" y="132.66666666666666"/>
      <point x="464.0" y="205.0"/>
    </contour>
  </outline>
</glyph>
<glyph name="s" format="2">
  <advance width="516"/>
  <unicode hex="0073"/>
  <note>
s
</note>
  <anchor x="254.0" y="0" name="bottom"/>
  <anchor x="254.0" y="530.0" name="top"/>
  <outline>
    <contour>
      <point x="23.333333333333336" y="82.33333333333333" type="qcurve"/>
      <point x="125.33333333333333" y="169.66666666666666" type="line"/>
      <point x="156.0" y="138.0"/>
      <point x="231.0" y="108.33333333333333"/>
      <point x="265.3333333333333" y="108.33333333333333" type="qcurve"/>
      <point x="291.0" y="108.33333333333333"/>
      <point x="323.3333333333333" y="129.66666666666666"/>
      <point x="323.3333333333333" y="148.66666666666666" type="qcurve"/>
      <point x="323.3333333333333" y="166.0"/>
      <point x="288.6666666666667" y="185.66666666666666"/>
      <point x="222.0" y="203.0" type="qcurve"/>
      <point x="135.33333333333334" y="225.33333333333334"/>
      <point x="43.0" y="308.3333333333333"/>
      <point x="43.0" y="375.0" type="qcurve"/>
      <point x="43.0" y="453.6666666666667"/>
      <point x="158.66666666666666" y="542.6666666666666"/>
      <point x="258.3333333333333" y="542.6666666666666" type="qcurve"/>
      <point x="325.6666666666667" y="542.6666666666666"/>
      <point x="440.6666666666667" y="499.6666666666667"/>
      <point x="482.6666666666667" y="462.6666666666667" type="qcurve"/>
      <point x="394.3333333333333" y="364.3333333333333" type="line"/>
      <point x="361.3333333333333" y="392.6666666666667"/>
      <point x="288.3333333333333" y="422.3333333333333"/>
      <point x="261.3333333333333" y="422.3333333333333" type="qcurve"/>
      <point x="235.66666666666666" y="422.3333333333333"/>
      <point x="206.0" y="404.3333333333333"/>
      <point x="206.0" y="386.0" type="qcurve"/>
      <point x="206.33333333333331" y="368.3333333333333"/>
      <point x="241.66666666666666" y="345.6666666666667"/>
      <point x="319.6666666666667" y="324.0" type="qcurve"/>
      <point x="404.0" y="300.6666666666667"/>
      <point x="486.3333333333333" y="226.66666666666666"/>
      <point x="486.3333333333333" y="168.0" type="qcurve"/>
      <point x="486.3333333333333" y="84.66666666666667"/>
      <point x="365.3333333333333" y="-10.0"/>
      <point x="260.3333333333333" y="-10.0" type="qcurve"/>
      <point x="180.33333333333334" y="-10.0"/>
      <point x="59.0" y="40.666666666666664"/>
    </contour>
  </outline>
</glyph>
<glyph name="asciitilde" format="2">
  <advance width="566"/>
  <unicode hex="007E"/>
  <note>
asciitilde
</note>
  <outline>
    <contour>
      <point x="387.3333333333333" y="211.66666666666666" type="qcurve"/>
      <point x="371.6666666666667" y="211.66666666666666"/>
      <point x="324.3333333333333" y="223.33333333333334"/>
      <point x="267.0" y="244.66666666666666" type="qcurve" smooth="yes"/>
      <point x="228.0" y="260.3333333333333"/>
      <point x="201.0" y="268.3333333333333"/>
      <point x="192.33333333333331" y="268.3333333333333" type="qcurve" smooth="yes"/>
      <point x="175.66666666666666" y="268.3333333333333"/>
      <point x="158.0" y="240.33333333333334"/>
      <point x="158.0" y="213.66666666666666" type="qcurve"/>
      <point x="53.33333333333333" y="213.66666666666666" type="line"/>
      <point x="53.33333333333333" y="295.0"/>
      <point x="119.0" y="382.3333333333333"/>
      <point x="187.33333333333334" y="382.3333333333333" type="qcurve" smooth="yes"/>
      <point x="204.0" y="382.3333333333333"/>
      <point x="250.33333333333334" y="370.6666666666667"/>
      <point x="305.0" y="348.3333333333333" type="qcurve" smooth="yes"/>
      <point x="342.3333333333333" y="333.6666666666667"/>
      <point x="368.0" y="325.6666666666667"/>
      <point x="375.6666666666667" y="325.6666666666667" type="qcurve"/>
      <point x="391.3333333333333" y="325.6666666666667"/>
      <point x="410.0" y="350.6666666666667"/>
      <point x="408.0" y="370.3333333333333" type="qcurve"/>
      <point x="512.6666666666666" y="367.3333333333333" type="line"/>
      <point x="512.6666666666666" y="291.0"/>
      <point x="449.3333333333333" y="211.66666666666666"/>
    </contour>
  </outline>
</glyph>
<glyph name="copyright" format="2">
  <advance width="791"/>
  <unicode hex="00A9"/>
  <note>
copyright
</note>
  <outline>
    <contour>
      <point x="778.6666666666666" y="350.0" type="qcurve" smooth="yes"/>
      <point x="778.6666666666666" y="189.8702147525677"/>
      <point x="554.3333333333334" y="-33.666666666666664"/>
      <point x="395.0" y="-33.666666666666664" type="qcurve" smooth="yes"/>
      <point x="234.66666666666666" y="-33.666666666666664"/>
      <point x="11.333333333333336" y="189.8702147525677"/>
      <point x="11.333333333333336" y="350.0" type="qcurve" smooth="yes"/>
      <point x="11.333333333333336" y="510.12978524743227"/>
      <point x="234.66666666666666" y="733.6666666666666"/>
      <point x="395.0" y="733.6666666666666" type="qcurve" smooth="yes"/>
      <point x="554.3333333333334" y="733.6666666666666"/>
      <point x="778.6666666666666" y="510.12978524743227"/>
    </contour>
    <contour>
      <point x="118.66666666666667" y="350.0" type="qcurve" smooth="yes"/>
      <point x="118.66666666666667" y="234.49414270500532"/>
      <point x="279.6666666666667" y="73.66666666666667"/>
      <point x="395.0" y="73.66666666666667" type="qcurve" smooth="yes"/>
      <point x="510.50585729499466" y="73.66666666666667"/>
      <point x="671.3333333333334" y="234.66666666666666"/>
      <point x="671.3333333333334" y="350.0" type="qcurve" smooth="yes"/>
      <point x="671.3333333333334" y="466.3333333333333"/>
      <point x="510.50585729499466" y="626.3333333333334"/>
      <point x="395.0" y="626.3333333333334" type="qcurve" smooth="yes"/>
      <point x="279.49414270500534" y="626.3333333333334"/>
      <point x="118.66666666666667" y="466.3333333333333"/>
    </contour>
    <contour>
      <point x="406.3333333333333" y="143.33333333333334" type="qcurve" smooth="yes"/>
      <point x="317.6666666666667" y="143.33333333333334"/>
      <point x="194.33333333333334" y="260.6666666666667"/>
      <point x="194.33333333333334" y="349.3333333333333" type="qcurve" smooth="yes"/>
      <point x="194.33333333333334" y="435.3333333333333"/>
      <point x="317.6666666666667" y="557.0"/>
      <point x="406.3333333333333" y="557.0" type="qcurve" smooth="yes"/>
      <point x="442.3333333333333" y="557.0"/>
      <point x="510.3333333333333" y="532.0"/>
      <point x="542.6666666666666" y="508.0" type="qcurve"/>
      <point x="491.6666666666667" y="398.3333333333333" type="line"/>
      <point x="470.9260505296865" y="413.6387954360684"/>
      <point x="435.41379310344826" y="426.0"/>
      <point x="420.3333333333333" y="426.0" type="qcurve" smooth="yes"/>
      <point x="385.5333333333333" y="426.0"/>
      <point x="339.6666666666667" y="381.6666666666667"/>
      <point x="339.6666666666667" y="349.3333333333333" type="qcurve" smooth="yes"/>
      <point x="339.6666666666667" y="315.3333333333333"/>
      <point x="385.5333333333333" y="271.6666666666667"/>
      <point x="420.3333333333333" y="271.6666666666667" type="qcurve" smooth="yes"/>
      <point x="436.40000000000003" y="271.6666666666667"/>
      <point x="474.95913887163493" y="283.69596699987005"/>
      <point x="494.3333333333333" y="299.0" type="qcurve"/>
      <point x="546.6666666666666" y="187.66666666666666" type="line"/>
      <point x="514.6666666666666" y="165.33333333333334"/>
      <point x="443.3333333333333" y="143.33333333333334"/>
    </contour>
  </outline>
</glyph>
<glyph name="logicalnot" format="2">
  <advance width="670"/>
  <unicode hex="00AC"/>
  <note>
logicalnot
</note>
  <outline>
    <contour>
      <point x="630.0" y="107.0" type="line"/>
      <point x="465.0" y="107.0" type="line"/>
      <point x="465.0" y="319.0" type="line"/>
      <point x="544.0" y="271.6666666666667" type="line"/>
      <point x="40.0" y="271.6666666666667" type="line"/>
      <point x="40.0" y="417.3333333333333" type="line"/>
      <point x="630.0" y="417.3333333333333" type="line"/>
    </contour>
  </outline>
</glyph>
<glyph name="micro" format="2">
  <advance width="648"/>
  <unicode hex="00B5"/>
  <note>
uni00B5
</note>
  <outline>
    <contour>
      <point x="409.0" y="531.6666666666666" type="line"/>
      <point x="576.6666666666666" y="531.6666666666666" type="line"/>
      <point x="576.6666666666666" y="0.0" type="line"/>
      <point x="420.3333333333333" y="0.0" type="line"/>
      <point x="413.0" y="91.66666666666667" type="line"/>
      <point x="428.3333333333333" y="85.0" type="line"/>
      <point x="397.6666666666667" y="38.0"/>
      <point x="322.0" y="-7.333333333333334"/>
      <point x="263.6666666666667" y="-11.333333333333334" type="qcurve" smooth="yes"/>
      <point x="250.66666666666666" y="-11.333333333333334"/>
      <point x="225.0" y="-1.0"/>
      <point x="218.66666666666666" y="7.666666666666671" type="qcurve"/>
      <point x="234.33333333333331" y="66.66666666666667" type="line"/>
      <point x="241.0" y="-162.33333333333334" type="line"/>
      <point x="73.33333333333333" y="-162.33333333333334" type="line"/>
      <point x="73.33333333333333" y="531.6666666666666" type="line"/>
      <point x="241.0" y="531.6666666666666" type="line"/>
      <point x="241.0" y="222.0" type="line" smooth="yes"/>
      <point x="241.0" y="176.33333333333334"/>
      <point x="281.0" y="129.33333333333331"/>
      <point x="318.6666666666667" y="129.33333333333331" type="qcurve" smooth="yes"/>
      <point x="357.6666666666667" y="129.33333333333331"/>
      <point x="409.0" y="181.0"/>
      <point x="409.0" y="218.66666666666666" type="qcurve"/>
    </contour>
  </outline>
</glyph>
<glyph name="paragraph" format="2">
  <advance width="768"/>
  <unicode hex="00B6"/>
  <note>
paragraph
</note>
  <outline>
    <contour>
      <point x="688.6666666666666" y="0.0" type="line"/>
      <point x="514.0" y="0.0" type="line"/>
      <point x="514.0" y="660.0" type="line"/>
      <point x="570.0" y="596.0" type="line"/>
      <point x="341.3333333333333" y="596.0" type="line"/>
      <point x="425.3333333333333" y="652.0" type="line"/>
      <point x="425.3333333333333" y="0.0" type="line"/>
      <point x="250.66666666666666" y="0.0" type="line"/>
      <point x="250.66666666666666" y="314.0" type="line"/>
      <point x="301.3333333333333" y="272.3333333333333" type="line"/>
      <point x="234.0" y="272.3333333333333" type="line" smooth="yes"/>
      <point x="153.0" y="272.3333333333333"/>
      <point x="46.0" y="391.3333333333333"/>
      <point x="46.0" y="482.6666666666667" type="qcurve" smooth="yes"/>
      <point x="46.0" y="581.0"/>
      <point x="169.0" y="700.0"/>
      <point x="271.0" y="700.0" type="qcurve"/>
      <point x="688.6666666666666" y="700.0" type="line"/>
    </contour>
  </outline>
</glyph>
<glyph name="germandbls" format="2">
  <advance width="679"/>
  <unicode hex="00DF"/>
  <note>
germandbls
</note>
  <outline>
    <contour>
      <point x="174.0" y="358.0" type="line"/>
      <point x="20.333333333333336" y="358.0" type="line"/>
      <point x="20.333333333333336" y="502.3333333333333" type="line"/>
      <point x="174.0" y="502.3333333333333" type="line"/>
    </contour>
    <contour>
      <point x="264.6666666666667" y="0.0" type="line"/>
      <point x="97.0" y="0.0" type="line"/>
      <point x="97.0" y="499.0" type="line"/>
      <point x="97.0" y="604.0"/>
      <point x="227.66666666666666" y="734.0"/>
      <point x="345.3333333333333" y="734.0" type="qcurve"/>
      <point x="441.0" y="734.0"/>
      <point x="571.0" y="645.0"/>
      <point x="571.0" y="564.0" type="qcurve"/>
      <point x="571.0" y="514.3333333333334"/>
      <point x="510.6666666666667" y="418.0"/>
      <point x="457.6666666666667" y="395.0" type="qcurve"/>
      <point x="455.6666666666667" y="435.6666666666667" type="line"/>
      <point x="539.6666666666666" y="409.3333333333333"/>
      <point x="644.0" y="291.0"/>
      <point x="644.0" y="203.0" type="qcurve" smooth="yes"/>
      <point x="644.0" y="112.0"/>
      <point x="519.6666666666666" y="-10.0"/>
      <point x="424.0" y="-10.0" type="qcurve" smooth="yes"/>
      <point x="383.3333333333333" y="-10.0"/>
      <point x="319.3333333333333" y="14.333333333333334"/>
      <point x="295.0" y="38.333333333333336" type="qcurve"/>
      <point x="359.6666666666667" y="157.33333333333331" type="line"/>
      <point x="376.6666666666667" y="144.0"/>
      <point x="403.3333333333333" y="134.0"/>
      <point x="418.0" y="134.0" type="qcurve"/>
      <point x="446.6666666666667" y="134.0"/>
      <point x="480.3333333333333" y="170.66666666666666"/>
      <point x="480.3333333333333" y="201.66666666666666" type="qcurve" smooth="yes"/>
      <point x="480.3333333333333" y="247.0"/>
      <point x="416.6666666666667" y="310.0"/>
      <point x="339.3333333333333" y="343.0" type="qcurve"/>
      <point x="339.3333333333333" y="431.3333333333333" type="line"/>
      <point x="379.0" y="449.0"/>
      <point x="412.3333333333333" y="489.3333333333333"/>
      <point x="412.3333333333333" y="518.3333333333334" type="qcurve"/>
      <point x="412.3333333333333" y="554.6666666666666"/>
      <point x="376.6666666666667" y="590.6666666666666"/>
      <point x="342.0" y="590.6666666666666" type="qcurve"/>
      <point x="305.6666666666667" y="590.6666666666666"/>
      <point x="264.6666666666667" y="540.6666666666666"/>
      <point x="264.6666666666667" y="497.3333333333333" type="qcurve"/>
    </contour>
  </outline>
</glyph>
<glyph name="Eogonek" format="2">
  <advance width="650"/>
  <unicode hex="0118"/>
  <note>
Eogonek
</note>
  <outline>
    <contour>
      <point x="439.0" y="-217.0" type="qcurve" smooth="yes"/>
      <point x="384.3333333333333" y="-217.0"/>
      <point x="313.0" y="-155.66666666666666"/>
      <point x="313.0" y="-106.66666666666667" type="qcurve" smooth="yes"/>
      <point x="313.0" y="-55.66666666666667"/>
      <point x="411.3333333333333" y="29.333333333333336"/>
      <point x="488.0" y="50.0" type="qcurve"/>
      <point x="535.0" y="0.0" type="line"/>
      <point x="489.0" y="-13.666666666666668"/>
      <point x="428.0" y="-58.66666666666667"/>
      <point x="428.0" y="-83.33333333333334" type="qcurve" smooth="yes"/>
      <point x="428.0" y="-96.0"/>
      <point x="445.0" y="-112.66666666666667"/>
      <point x="459.0" y="-112.66666666666667" type="qcurve" smooth="yes"/>
      <point x="469.6666666666667" y="-112.66666666666667"/>
      <point x="489.0" y="-100.66666666666667"/>
      <point x="500.0" y="-88.66666666666667" type="qcurve"/>
      <point x="560.3333333333334" y="-155.66666666666666" type="line"/>
      <point x="538.6666666666666" y="-180.33333333333334"/>
      <point x="475.6666666666667" y="-217.0"/>
    </contour>
    <component base="E"/>
  </outline>
</glyph>
<glyph name="Hbar" format="2">
  <advance width="814"/>
  <unicode hex="0126"/>
  <note>
Hbar
</note>
  <outline>
    <contour>
      <point x="107.66666666666667" y="481.3333333333333" type="line"/>
      <point x="37.0" y="481.3333333333333" type="line"/>
      <point x="37.0" y="625.3333333333334" type="line"/>
      <point x="111.0" y="625.3333333333334" type="line"/>
      <point x="199.0" y="615.3333333333334" type="line"/>
      <point x="593.0" y="615.3333333333334" type="line"/>
      <point x="691.6666666666666" y="625.3333333333334" type="line"/>
      <point x="780.0" y="625.3333333333334" type="line"/>
      <point x="780.0" y="481.3333333333333" type="line"/>
      <point x="694.0" y="481.3333333333333" type="line"/>
      <point x="605.0" y="491.3333333333333" type="line"/>
      <point x="189.0" y="491.3333333333333" type="line"/>
    </contour>
    <component base="H" xOffset="16"/>
  </outline>
</glyph>
<glyph name="idotless" format="2">
  <advance width="310"/>
  <unicode hex="0131"/>
  <note>
dotlessi
</note>
  <anchor x="156.0" y="0" name="bottom"/>
  <anchor x="240.0" y="10.0" name="ogonek"/>
  <anchor x="156.0" y="531.6666666666666" name="top"/>
  <outline>
    <contour>
      <point x="240.33333333333331" y="531.6666666666666" type="line"/>
      <point x="240.33333333333331" y="0.0" type="line"/>
      <point x="223.0" y="0.0"/>
      <point x="88.0" y="0.0"/>
      <point x="70.66666666666667" y="0.0" type="curve"/>
      <point x="70.66666666666667" y="531.6666666666666" type="line"/>
    </contour>
  </outline>
</glyph>
<glyph name="circumflex" format="2">
  <advance width="400"/>
  <unicode hex="02C6"/>
  <outline>
    <contour>
      <point x="325.6666666666667" y="580.3333333333334" type="line"/>
      <point x="184.0" y="656.6666666666666" type="line"/>
      <point x="214.0" y="656.6666666666666" type="line"/>
      <point x="72.33333333333333" y="580.3333333333334" type="line"/>
      <point x="21.0" y="620.0" type="line"/>
      <point x="150.66666666666666" y="753.0" type="line"/>
      <point x="247.33333333333334" y="753.0" type="line"/>
      <point x="377.0" y="620.0" type="line"/>
    </contour>
  </outline>
</glyph>
<glyph name="hungarumlautcomb" format="2">
  <unicode hex="030B"/>
  <anchor x="197.33333333333334" y="512.0" name="_top"/>
  <anchor x="197.33333333333334" y="740.0" name="top"/>
  <outline>
    <contour>
      <point x="215.0" y="671.0" type="line"/>
      <point x="27.0" y="567.0" type="line"/>
      <point x="-19.666666666666664" y="635.3333333333334" type="line"/>
      <point x="129.33333333333334" y="778.3333333333334" type="line"/>
    </contour>
    <contour>
      <point x="446.6666666666667" y="671.0" type="line"/>
      <point x="258.6666666666667" y="567.0" type="line"/>
      <point x="212.0" y="635.3333333333334" type="line"/>
      <point x="361.0" y="778.3333333333334" type="line"/>
    </contour>
  </outline>
</glyph>
<glyph name="euro" format="2">
  <advance width="649"/>
  <unicode hex="20AC"/>
  <note>
Euro
</note>
  <outline>
    <contour>
      <point x="460.3333333333333" y="191.0" type="line"/>
      <point x="18.333333333333332" y="191.33333333333334" type="line"/>
      <point x="18.333333333333332" y="322.6666666666667" type="line"/>
      <point x="460.3333333333333" y="322.0" type="line"/>
    </contour>
    <contour>
      <point x="460.3333333333333" y="369.0" type="line"/>
      <point x="18.333333333333332" y="369.3333333333333" type="line"/>
      <point x="18.333333333333332" y="500.3333333333333" type="line"/>
      <point x="460.3333333333333" y="500.0" type="line"/>
    </contour>
    <contour>
      <point x="452.3333333333333" y="-10.0" type="qcurve"/>
      <point x="293.3333333333333" y="-10.0"/>
      <point x="88.66666666666667" y="193.66666666666666"/>
      <point x="88.66666666666667" y="353.3333333333333" type="qcurve"/>
      <point x="88.66666666666667" y="510.3333333333333"/>
      <point x="294.0" y="715.3333333333334"/>
      <point x="452.3333333333333" y="715.3333333333334" type="qcurve"/>
      <point x="499.3333333333333" y="715.3333333333334"/>
      <point x="586.3333333333334" y="694.6666666666666"/>
      <point x="623.3333333333334" y="675.0" type="qcurve"/>
      <point x="535.0" y="529.3333333333334" type="line"/>
      <point x="516.6666666666666" y="539.6666666666666"/>
      <point x="474.0" y="550.0"/>
      <point x="452.3333333333333" y="550.0" type="qcurve"/>
      <point x="372.0" y="550.0"/>
      <point x="267.66666666666663" y="439.3333333333333"/>
      <point x="267.66666666666663" y="353.3333333333333" type="qcurve"/>
      <point x="267.66666666666663" y="265.3333333333333"/>
      <point x="371.3333333333333" y="155.33333333333331"/>
      <point x="452.3333333333333" y="155.33333333333331" type="qcurve"/>
      <point x="475.3333333333333" y="155.33333333333331"/>
      <point x="518.0" y="166.66666666666666"/>
      <point x="536.3333333333334" y="177.0" type="qcurve"/>
      <point x="619.0" y="28.333333333333336" type="line"/>
      <point x="581.3333333333334" y="9.666666666666668"/>
      <point x="496.6666666666667" y="-10.0"/>
    </contour>
  </outline>
</glyph>
<glyph name="product" format="2">
  <advance width="708"/>
  <unicode hex="220F"/>
  <note>
product
</note>
  <outline>
    <contour>
      <point x="231.0" y="-200.0" type="line"/>
      <point x="127.0" y="-200.0" type="line"/>
      <point x="127.0" y="641.0" type="line"/>
      <point x="231.0" y="641.0" type="line"/>
    </contour>
    <contour>
      <point x="680.0" y="603.0" type="line"/>
      <point x="28.0" y="603.0" type="line"/>
      <point x="28.0" y="700.0" type="line"/>
      <point x="680.0" y="700.0" type="line"/>
    </contour>
    <contour>
      <point x="581.0" y="-200.0" type="line"/>
      <point x="476.0" y="-200.0" type="line"/>
      <point x="476.0" y="656.0" type="line"/>
      <point x="581.0" y="656.0" type="line"/>
    </contour>
  </outline>
</glyph>
<glyph name="integral" format="2">
  <advance width="629"/>
  <unicode hex="222B"/>
  <note>
integral
</note>
  <outline>
    <contour>
      <point x="158.33333333333331" y="-140.33333333333334" type="qcurve" smooth="yes"/>
      <point x="121.33333333333333" y="-140.33333333333334"/>
      <point x="28.666666666666668" y="-104.33333333333333"/>
      <point x="-20.0" y="-70.33333333333333" type="qcurve"/>
      <point x="69.0" y="76.0" type="line"/>
      <point x="85.0" y="62.66666666666666"/>
      <point x="122.66666666666666" y="41.666666666666664"/>
      <point x="141.0" y="41.666666666666664" type="qcurve" smooth="yes"/>
      <point x="166.42857142857142" y="41.666666666666664"/>
      <point x="202.00869535968152" y="88.71883882475592"/>
      <point x="209.0" y="130.66666666666666" type="qcurve"/>
      <point x="278.6666666666667" y="547.0" type="line" smooth="yes"/>
      <point x="296.3333333333333" y="654.0"/>
      <point x="399.6666666666667" y="758.3333333333334"/>
      <point x="481.3333333333333" y="758.3333333333334" type="qcurve" smooth="yes"/>
      <point x="534.6666666666666" y="758.3333333333334"/>
      <point x="614.0" y="730.0"/>
      <point x="645.0" y="703.3333333333334" type="qcurve"/>
      <point x="593.3333333333334" y="562.3333333333334" type="line"/>
      <point x="572.3333333333334" y="576.3333333333334"/>
      <point x="525.3333333333334" y="591.3333333333334"/>
      <point x="506.3333333333333" y="591.3333333333334" type="qcurve" smooth="yes"/>
      <point x="477.3333333333333" y="591.3333333333334"/>
      <point x="439.3333333333333" y="544.3333333333334"/>
      <point x="431.3333333333333" y="497.3333333333333" type="qcurve"/>
      <point x="364.0" y="71.0" type="line" smooth="yes"/>
      <point x="347.0" y="-35.333333333333336"/>
      <point x="242.0" y="-140.33333333333334"/>
    </contour>
  </outline>
</glyph>
<glyph name="approxequal" format="2">
  <advance width="616"/>
  <unicode hex="2248"/>
  <note>
approxequal
</note>
  <outline>
    <contour>
      <point x="430.3333333333333" y="284.6666666666667" type="qcurve"/>
      <point x="411.6666666666667" y="284.6666666666667"/>
      <point x="356.6666666666667" y="297.3333333333333"/>
      <point x="291.3333333333333" y="323.6666666666667" type="qcurve" smooth="yes"/>
      <point x="245.66666666666666" y="342.6666666666667"/>
      <point x="213.0" y="349.3333333333333"/>
      <point x="202.33333333333331" y="349.3333333333333" type="qcurve"/>
      <point x="186.0" y="349.3333333333333"/>
      <point x="167.66666666666666" y="325.3333333333333"/>
      <point x="168.0" y="302.6666666666667" type="qcurve"/>
      <point x="56.666666666666664" y="298.3333333333333" type="line"/>
      <point x="56.666666666666664" y="381.0"/>
      <point x="129.33333333333334" y="470.3333333333333"/>
      <point x="204.0" y="470.3333333333333" type="qcurve"/>
      <point x="222.0" y="470.3333333333333"/>
      <point x="270.3333333333333" y="455.6666666666667"/>
      <point x="329.6666666666667" y="430.6666666666667" type="qcurve" smooth="yes"/>
      <point x="370.3333333333333" y="413.6666666666667"/>
      <point x="399.3333333333333" y="405.6666666666667"/>
      <point x="408.6666666666667" y="405.6666666666667" type="qcurve"/>
      <point x="428.0" y="405.6666666666667"/>
      <point x="449.0" y="425.6666666666667"/>
      <point x="447.6666666666667" y="447.0" type="qcurve"/>
      <point x="559.0" y="449.6666666666667" type="line"/>
      <point x="559.0" y="369.6666666666667"/>
      <point x="494.0" y="284.6666666666667"/>
    </contour>
    <contour>
      <point x="430.3333333333333" y="64.33333333333334" type="qcurve"/>
      <point x="411.6666666666667" y="64.33333333333334"/>
      <point x="356.6666666666667" y="77.0"/>
      <point x="291.3333333333333" y="103.33333333333334" type="qcurve" smooth="yes"/>
      <point x="245.66666666666666" y="122.33333333333334"/>
      <point x="213.0" y="129.0"/>
      <point x="202.33333333333331" y="129.0" type="qcurve"/>
      <point x="186.0" y="129.0"/>
      <point x="167.66666666666666" y="105.0"/>
      <point x="168.0" y="82.33333333333334" type="qcurve"/>
      <point x="56.666666666666664" y="78.0" type="line"/>
      <point x="56.666666666666664" y="160.66666666666666"/>
      <point x="126.0" y="250.0"/>
      <point x="197.33333333333334" y="250.0" type="qcurve"/>
      <point x="216.0" y="250.0"/>
      <point x="267.6666666666667" y="236.66666666666666"/>
      <point x="329.6666666666667" y="210.33333333333334" type="qcurve" smooth="yes"/>
      <point x="370.3333333333333" y="193.33333333333334"/>
      <point x="399.3333333333333" y="185.33333333333334"/>
      <point x="408.6666666666667" y="185.33333333333334" type="qcurve"/>
      <point x="428.0" y="185.33333333333334"/>
      <point x="449.0" y="205.33333333333334"/>
      <point x="447.6666666666667" y="226.66666666666666" type="qcurve"/>
      <point x="559.0" y="229.33333333333334" type="line"/>
      <point x="559.0" y="149.33333333333334"/>
      <point x="494.0" y="64.33333333333334"/>
    </contour>
  </outline>
</glyph>
<glyph name="J.ss01" format="2">
  <advance width="577"/>
  <note>
J
</note>
  <anchor x="300.0" y="0" name="bottom"/>
  <anchor x="416.0" y="700.0" name="top"/>
  <outline>
    <contour>
      <point x="252.66666666666666" y="-10.0" type="qcurve"/>
      <point x="170.0" y="-10.0"/>
      <point x="57.0" y="55.333333333333336"/>
      <point x="30.0" y="106.33333333333333" type="qcurve"/>
      <point x="136.0" y="214.0" type="line"/>
      <point x="161.0" y="178.33333333333331"/>
      <point x="207.0" y="147.66666666666666"/>
      <point x="236.66666666666666" y="147.66666666666666" type="qcurve" smooth="yes"/>
      <point x="270.6666666666667" y="147.66666666666666"/>
      <point x="316.0" y="193.0"/>
      <point x="316.0" y="231.66666666666666" type="qcurve"/>
      <point x="316.0" y="700.0" type="line"/>
      <point x="490.6666666666667" y="700.0" type="line"/>
      <point x="490.6666666666667" y="213.0" type="line"/>
      <point x="490.6666666666667" y="110.0"/>
      <point x="359.0" y="-10.0"/>
    </contour>
  </outline>
</glyph>
<glyph name="circumflexcomb.case" format="2">
  <anchor x="197.66666666666666" y="538.0" name="_top"/>
  <anchor x="197.66666666666666" y="757.0" name="top"/>
  <outline>
    <contour>
      <point x="323.6666666666667" y="574.6666666666666" type="line"/>
      <point x="182.66666666666666" y="651.6666666666666" type="line"/>
      <point x="212.33333333333334" y="651.6666666666666" type="line"/>
      <point x="71.33333333333333" y="574.6666666666666" type="line"/>
      <point x="20.333333333333336" y="615.0" type="line"/>
      <point x="151.33333333333334" y="747.3333333333334" type="line"/>
      <point x="243.66666666666666" y="747.3333333333334" type="line"/>
      <point x="374.6666666666667" y="615.0" type="line"/>
    </contour>
  </outline>
</glyph>
<glyph name="dieresiscomb.case" format="2">
  <anchor x="200.0" y="525.0" name="_top"/>
  <anchor x="210.0" y="682.0" name="top"/>
  <outline>
    <contour>
      <point x="170.66666666666666" y="650.3333333333334" type="qcurve" smooth="yes"/>
      <point x="170.66666666666666" y="611.3333333333334"/>
      <point x="122.33333333333333" y="562.0"/>
      <point x="81.0" y="562.0" type="qcurve" smooth="yes"/>
      <point x="38.0" y="562.0"/>
      <point x="-8.666666666666664" y="608.0"/>
      <point x="-8.666666666666664" y="650.3333333333334" type="qcurve" smooth="yes"/>
      <point x="-8.666666666666664" y="689.3333333333334"/>
      <point x="39.66666666666667" y="738.6666666666666"/>
      <point x="81.0" y="738.6666666666666" type="qcurve" smooth="yes"/>
      <point x="124.0" y="738.6666666666666"/>
      <point x="170.66666666666666" y="693.3333333333334"/>
    </contour>
    <contour>
      <point x="420.0" y="650.3333333333334" type="qcurve" smooth="yes"/>
      <point x="420.0" y="611.3333333333334"/>
      <point x="371.6666666666667" y="562.0"/>
      <point x="330.3333333333333" y="562.0" type="qcurve" smooth="yes"/>
      <point x="287.3333333333333" y="562.0"/>
      <point x="240.66666666666666" y="608.0"/>
      <point x="240.66666666666666" y="650.3333333333334" type="qcurve" smooth="yes"/>
      <point x="240.66666666666666" y="689.3333333333334"/>
      <point x="289.0" y="738.6666666666666"/>
      <point x="330.3333333333333" y="738.6666666666666" type="qcurve" smooth="yes"/>
      <point x="373.3333333333333" y="738.6666666666666"/>
      <point x="420.0" y="693.3333333333334"/>
    </contour>
  </outline>
</glyph>
<glyph name="one.dnom" format="2">
  <advance width="292"/>
  <outline>
    <contour>
      <point x="239.0" y="368.0" type="line"/>
      <point x="239.0" y="-0.6666666666666667" type="line"/>
      <point x="206.66666666666666" y="-0.6666666666666667"/>
      <point x="143.0" y="-0.6666666666666667"/>
      <point x="110.66666666666667" y="-0.6666666666666667" type="qcurve"/>
      <point x="110.66666666666667" y="294.0" type="line"/>
      <point x="133.33333333333334" y="249.33333333333334" type="line"/>
      <point x="70.0" y="210.66666666666666" type="line"/>
      <point x="22.333333333333336" y="296.6666666666667" type="line"/>
      <point x="143.0" y="368.0" type="line"/>
    </contour>
  </outline>
</glyph>
